<?xml version="1.0" encoding="utf-8"?>
<!-- Generator: Adobe Illustrator 19.0.0, SVG Export Plug-In . SVG Version: 6.00 Build 0)  -->
<svg version="1.1" id="layer" xmlns="http://www.w3.org/2000/svg" xmlns:xlink="http://www.w3.org/1999/xlink" x="0px" y="0px"
	 viewBox="-153 -46 652 652" style="enable-background:new -153 -46 652 652;" xml:space="preserve">
<style type="text/css">
	.st0{fill:#00B2D9;}
	.st1{fill:#F3A13A;}
</style>
<path class="st0" d="M-44.8,314.5c-4.4-5.7-6.4-12.4-6.3-19c0.1-11,5.1-21.8,12.1-31.2c7-9.4,16.1-17.4,25.2-22.5
	c6.1-3.4,12.3-5.5,18.2-5.5c1.2,0,2.3,0.1,3.5,0.3c9.2,1.5,15.6,5.5,20,10.3c0.9,0.9,1.7,1.9,2.4,2.9l2.2-21.3
	c1.8-18.4,3.6-38.7,3.6-44.9v-1.1c-0.9-3.7-1.5-7.1-1.5-10.2c0-2,0.2-4.1,1.5-6.2c1.2-2.2,4.1-3.8,6.6-3.6h0.2
	c8.8,0.1,15.3,7.3,15.2,15.3c0,1.7-0.3,3.5-0.9,5.2v0.1l-0.1,0.6c-0.1,0.5-0.2,1.3-0.4,2.3c-0.3,1.9-0.7,4.5-1,7.7
	c-0.8,6.3-1.8,14.8-2.6,24.1c-1.7,16.9-3.3,36.7-3.9,51.5c1.5,0.5,3.3,1.2,5,2.4c1.5,1.1,3,2.8,3.6,5.2c0.4,1.5,0.6,2.9,0.6,4.3
	c0,2.2-0.7,4.4-2,6.1c-1.3,1.7-3,2.6-4.4,3.3c-1.8,0.8-3.7,1.4-5.6,2c0.4,2.7,0.9,6.5,0.9,10.2c0,1.9-0.1,3.8-0.6,5.7
	c-0.4,1.8-1.1,3.8-3,5.6c-1.2,1.2-3.2,1.9-4.9,1.9l-1.1,0c-3-0.4-5.6-1.3-7.6-2.8c-2.1-1.5-3.4-3.6-4-5.6c-0.3-0.9-0.5-1.8-0.7-2.7
	c-3.3,2.1-7.7,4.7-12.7,7.3c-10.8,5.6-24.3,11.4-36.9,11.4c-0.1,0-0.2,0-0.3,0c-7.4,0-14.9-2.5-19.8-9L-44.8,314.5z M-18.3,270.7
	c-7.5,8.5-12.7,19.4-12.6,25.6c0,2.5,0.6,3.9,1.5,4.9c1.5,1.5,3.1,2.2,6,2.2c5,0.1,12.9-2.9,21.3-7.4c7.6-4,15.6-9.1,23.3-13.8
	c-0.3-1.6-0.8-3.7-1.4-6c-1.4-5.1-3.8-11.3-6.9-15.3c-2.1-2.7-4.3-4.2-6.6-4.7c-0.6-0.1-1.1-0.2-1.8-0.2c-0.1,0-0.2,0-0.3,0
	C-1.6,256.1-11.1,262.1-18.3,270.7z M78,302.9c-5.2-7.7-8.6-17.5-11.1-27.3c-4.8-19.5-5.7-39.5-5.8-43.9c0-0.6-0.1-1.2-0.1-1.7
	c0-2.8,0.6-5.4,2.3-7.5c1.6-2.2,4.3-3.3,6.6-3.2c0.6,0,1.1,0,1.7,0.1c4.1,0.6,7.2,3.1,8.7,5.8c1.5,2.7,1.5,5.2,1.6,6.6v0.2
	c0,1.8-0.1,3.5-0.1,5.3c0,13.4,0.9,25.2,2.6,34.4c1.7,9.2,4.4,15.9,7.1,19c1.8,2.1,3.1,2.6,4.4,2.6c0.8,0,1.7-0.2,2.9-0.8
	c3.7-1.9,6.8-5.5,9.2-10.4c2.4-4.9,4.1-11,5.2-17c2.2-12,2.1-23.5,2.1-26.6v-0.8c0-1.8,0-4.3,1.6-7c1.6-2.8,5.3-4.8,9-4.6h0.7
	c2.5,0,4.8,1.2,6.3,2.6c1.5,1.4,2.3,3,2.9,4.5c1.1,2.8,1.2,5.3,1.3,5.5v0.4l0,0.4c-0.3,2.5-1,13.2-3.1,25.6
	c-2.1,12.4-5.5,26.5-11.9,37c-4.2,6.9-10.2,12.7-18.5,13.9c-1.2,0.1-2.5,0.2-3.6,0.2h0c-9.7,0-17.2-6-22.3-13.6L78,302.9z
	 M164.1,323.4c-0.6,0-1.2-0.1-1.7-0.1h0l-0.1,0c-3.6-0.5-6.6-2.4-8.2-4.8c-1.1-1.5-1.6-3.1-1.8-4.5c-0.4-0.1-0.7-0.2-1.1-0.3
	c-2-0.6-4.6-1.9-6.2-4.8l-0.1-0.2l-0.1-0.2c-0.4-0.9-0.3-1-0.4-1.3c0-0.2-0.1-0.4-0.1-0.6c0-0.4-0.1-0.9-0.1-1.4
	c-0.1-1.1-0.1-2.7-0.2-4.5c-0.1-3.7-0.2-8.8-0.1-14.6c0-12.2,0.5-27.6,2-40.5c-1.4-1.5-2.7-3.9-3.1-7l0-0.1l0-0.1c0-0.2,0-0.5,0-0.8
	c0.1-3.1,1.6-5.1,3.1-6.8c1-1.1,2.2-2.1,3.5-2.9c0.1-0.6,0.3-1.3,0.5-2.1c0.6-2.6,1.4-6.2,2.2-10.3c1.6-8.3,3.2-18.8,3.2-27.4v-1.3
	c0-0.3-0.3-1.9-0.8-3.8c-0.5-1.9-1-4.1-1.1-6.7c0-1.9,0.4-4.3,2.2-6.4c1.8-2.1,4.4-3.1,7-3.4c0.3,0,0.6-0.1,0.9-0.1
	c2.4,0,4.4,1.1,5.8,2.4c1.5,1.3,2.7,2.9,3.7,4.8c2,3.7,3.3,8.6,3.4,14.1c0,0.5,0,1,0,1.5c0,6.4-0.9,11.5-2.2,17.2
	c-1,4.7-2.3,9.9-3.6,17.3c5.7,0.1,14.8,0.8,23.9,3.7c9.8,3.1,20.1,9.1,25.3,20.4c1.1,2.4,1.6,4.9,1.6,7.4c-0.1,6-2.6,11.7-6,17.4
	c-3.5,5.7-8.1,11.4-13,16.8c-9.8,10.7-20.8,20.2-26.2,24.9c-1.5,1.3-2.6,2.3-2.8,2.5v0l0,0c-0.9,0.9-1.4,1.6-2,2.4
	c-0.6,0.7-1.2,2-3,3.2c-1.2,0.7-2.6,1-3.8,1h-0.1L164.1,323.4z M163.7,272.9c0,10.5,0.6,18.8,1.2,24.4c2.1-1.6,4.5-3.5,7.1-5.8
	c7.4-6.2,16.3-14.5,22-22.3c3.8-5.2,6-10.1,5.9-13c0-1.1-0.2-1.9-0.5-2.6c-0.9-2.1-4.6-4.9-10.1-6.6c-5.4-1.8-12.2-2.8-18.5-2.8
	c-1.3,0-2.6,0-3.9,0.1l-0.9,5.3c-0.8,5.2-1.8,12.2-2,18.9c0,1.5,0,2.9,0,4.4L163.7,272.9z M238.5,329.2c-2.6,0-5-1.1-7.4-2.7
	c0,0,0,0-0.1-0.1c-2.3-1.8-2.6-3.4-3.2-5.1c-0.5-1.7-0.8-3.6-1-5.9c-0.4-4.5-0.6-10.3-0.6-17.1c0.1-26.2,3.2-66.7,5.1-90.1
	c0.9-11.9,1.6-22.1,2.2-30c0.7-8,1.2-13.5,2.4-17.3c0.4-1.1,0.8-2.2,2.1-3.5l0,0l0.1,0c1.6-1.5,4.1-3.2,7.4-3.2
	c3.5,0,6.5,1.8,9.3,4.8c1,1.1,1.9,2.6,2.4,4.2c0.5,1.6,0.7,3.2,0.6,5.1c0,4.4-0.9,10.3-2.2,20.8c-1.4,10.4-3.3,25.3-5.6,46.8
	c-1.8,16.8-2.6,34-2.7,48.9c0,9.6,0.3,18.4,0.9,25.4l0,0.1v0.1c0,0.9,0.1,2.1,0.1,3.5c0,1.9-0.1,4.1-0.6,6.3
	c-0.5,2.2-1.2,4.5-3.3,6.7c-1.4,1.4-3.5,2.3-5.6,2.3h-0.1L238.5,329.2z M272.2,315l2-4.2L272.2,315c-4.9-2.5-9.2-7.2-12.4-13.2
	c-3.2-6.1-5.4-13.6-5.4-21.8c0-5.7,1.1-11.7,3.6-17.6c5.8-13.8,11.8-23.6,18.1-30.3c6.3-6.7,13.1-10.3,19.9-10.9
	c0.6-0.1,1.2-0.1,1.8-0.1c5.4,0,12.5,2.1,19,7.4c6.5,5.3,12.2,13.8,14.2,26.2c0.5,3,0.7,6,0.7,8.8c0,16.4-7.8,29.9-17.7,39.1
	c-10,9.2-22,14.4-32.3,14.5c-3.3,0-6.4-0.6-9.3-2L272.2,315z M299.3,242.4c-0.3,0.1-0.8,0.2-1.5,0.5c-1.4,0.6-3.4,1.7-5.8,3.7
	c-4.8,4-11.2,11.8-16.2,27.1c-0.5,1.5-0.9,3.7-0.9,6.1c0,3.7,0.8,7.8,2.2,10.9c1.5,3.2,3.4,5.1,5.3,5.7c0.5,0.2,1.1,0.3,1.8,0.3
	c3,0.1,8.2-2.2,12.7-5.8c4.5-3.5,8.4-8.2,9.7-11l0.1-0.1c3.2-6.5,5.3-12.8,5.4-18.9c0-3.8-0.8-7.4-2.6-11.2l0-0.1v0
	c-1.3-3-2.4-4.7-3.6-5.7c-0.8-0.7-1.9-1.3-3.7-1.8l-2.2,0.3c0,0-0.1,0-0.3,0L299.3,242.4z M298,241.3l0.4-3.5L298,241.3z
	 M-125.1,269.2c3.2-5,7.8-10.7,13.8-16c11.7-10.2,31.5-16.6,37.5-17.2l6.5,0.6c5.8,1,10.7,3.4,14.6,7c3.9,3.6,5,9.2,3.3,16.8
	c-1.8,7.6-6.4,13.7-14.1,18.3c-7.7,4.6-16,7.5-25,8.7c-9,1.3-14,2.8-14.9,4.7c-0.9,1.9,0.2,4.3,3.3,7.1c3.1,2.9,10.7,5.5,22.8,7.9
	c12,2.4,22.1,3.2,30.1,2.3c8-0.9,14.6-2.1,19.7-3.7c5.1-1.6,10.6,3.8,13.4,3.5c2.8-0.4,4.9,1.4,6,5.2c-5.9,6.3-13.5,4.3-19.8,6.8
	c-6.3,2.5-14,4.4-23.1,5.8c-9.1,1.4-20,1.5-32.7,0.3l-7.6-1.1c-13.6-3.3-22.6-6.4-27-9.5c-4.5-3.1-7.8-6.4-10-10
	c-2.2-3.6-3.4-8.7-3.6-15.2c1.4-9.8,3.7-17.2,6.9-22.1L-125.1,269.2z M-104.5,276.2c12-2.1,20.2-4.7,24.5-7.5
	c4.4-2.9,6.4-5.7,6.3-8.7c-0.2-2.9-3.4-3.3-9.7-1.1c-6.3,2.2-10.7,4.7-13.3,7.5C-99.2,269.2-101.8,272.5-104.5,276.2L-104.5,276.2z
	 M291.5,393.5c-18.9-3.8-34.6-11.5-46.8-23.1c-1.6-1.5-2.5-3.4-2.5-5.5c0-0.4,0-0.9,0.1-1.3c0.4-2.3,1.5-4.3,3.1-5.9
	c1.7-1.6,3.8-2.6,6.2-3c0.4-0.1,0.8-0.1,1.2-0.1c2.2,0,4.2,0.9,6,2.5c3.5,3.2,7.9,6.1,12.9,8.6c5.1,2.6,10.1,4.6,15,6.2
	c7.7,2.4,15.5,3.9,23.6,4.5c2.6,0.2,5.2,0.3,7.8,0.3c5.3,0,10.7-0.5,16-1.5c7.3-1.4,14.1-3.4,20.3-6.2c5.9-2.5,17.8-12.9,21-23.2
	c6-19.1,6.5-32.1,6.5-38.8c-1.4,1.8-2.8,3.6-4.3,5.3c-2.6,2.9-5.5,5.4-8.8,7.7c-3.8,2.6-8.2,4.4-13.3,5.3c-0.8,0.1-1.6,0.2-2.4,0.2
	c-2.2,0-4.3-0.5-6.2-1.5c-2.6-1.2-4.8-2.8-6.5-4.6c-5.3-5.6-8.2-12.8-8.6-21.2c0-0.8-0.1-1.6-0.1-2.3c0-7.3,1.5-14.6,4.5-21.8
	c3.3-7.9,7.2-15.2,11.7-22.1c1-1.7,3.1-4.4,6.1-8.1c3-3.9,6.7-7.7,10.8-11.4c4.2-3.7,8.7-6.8,13.5-9.2c3.2-1.6,6.3-2.4,9.6-2.5
	c1.8,0,3.5,0.2,5.2,0.7c1.2,0.4,2.1,0.8,2.8,1.4c0.8,0.6,1.3,1.6,1.3,2.6c0,0.2,0,0.4,0,0.5c-0.3,1.6-1.1,3.1-2.5,4.6h0.8
	c1,0,2,0.1,3.1,0.3c5.5,0.9,9.1,4.2,9.1,9c0,0.3,0,0.5,0,0.8c-0.9,13-1.7,26-2.6,39c-0.9,13.1-2.4,26-4,39c-1.2,9.7-3,21.9-7.1,32.6
	c-1.8,4.7-3.8,9.4-6.8,13.8c-4.8,6.9-10.9,12.5-18.4,17c-7.4,4.4-15.4,7.8-24,10c-8.8,2.2-17.8,3.4-27.1,3.4
	c-8.7,0-17.6-0.9-26.6-2.7L291.5,393.5z M384.2,240.4c-1.4,1.3-2.9,2.8-4.2,4.4l-4.5,5.4c-3,3.6-5.5,7.2-7.4,10.8
	c-1.9,3.7-3.9,7.5-5.8,11.5c-5.1,10.2-7.5,18.3-7.5,24.2v0.2c0,3,0.4,5.3,0.8,6.9c0.5,1.4,1,1.9,1.3,2c0,0,0,0,0,0
	c0.1,0,0.2-0.1,0.3-0.2c0.3-0.2,0.7-0.5,1.2-1c0.9-0.9,2.2-2.5,3.6-4.5c3.1-4.4,6.7-11,10.6-19.8c3-6.9,5.6-14,7.7-21.1
	c2.1-7.1,4.2-14.1,6.3-21.1c-0.9,0.8-1.8,1.5-2.5,2.1L384.2,240.4z M427.4,324.3c-6.4-3.8-11.6-8.7-15.5-14.6
	c-0.8-1.2-1.3-2.6-1.3-4.1c0-1,0.2-1.9,0.6-2.9c0.9-2.2,2.3-4.1,4.2-5.6c1.9-1.5,4-2.4,6.3-2.6c0.3,0,0.6,0,0.8,0
	c2.2,0,4.2,1,5.5,2.9c2.4,3.3,5.5,6.2,9.4,8.8c1.5,0.9,2.8,1.3,4,1.3c1.5,0,3-0.7,4.5-2.4c0-0.1,0.1-0.2,0.1-0.4
	c0.1-0.3,0.3-0.6,0.4-1c0.4-0.9,0.7-2.5,0.8-4.6v-0.2c0-1.9-0.5-4.4-1.6-7.1c-1-2.7-3.3-5.6-6.8-8.7c-1.9-1.6-3.9-3.1-6-4.5
	c-2.2-1.5-4.2-3.4-5.9-5.4c-3.4-4.2-5.2-9-5.2-14.3c0-1.5,0.1-3.1,0.4-4.6c1.3-7.9,5.3-14.5,11.9-19.5c6.5-5,13.3-8.3,20.4-9.8
	c0.5-0.1,1.1-0.2,1.6-0.2c1.8,0,3.5,0.8,4.6,2.1s1.8,3,1.8,4.7c0,0.5,0,0.9-0.1,1.4c-0.8,4.2-3.5,7.4-7.7,9.2
	c-1.6,0.7-3.5,1.8-5.7,3.4c-2.1,1.5-3.9,3.2-5.4,5.2c-1.4,1.8-2.2,3.7-2.4,5.6c0,0.1,0,0.3,0,0.4c0,1.4,0.8,2.9,2.7,4.6
	c2.1,1.9,4.4,3.6,6.7,5.3c2.5,1.7,4.6,3.7,6.6,6.2c2.5,3,4.7,6.2,6.8,9.7c2.1,3.6,3.4,7.5,3.8,11.5c0.1,1.3,0.2,2.6,0.2,3.9
	c0,5.5-1.2,10.7-3.6,15.7c-3,6.2-8.2,10.6-15.2,12.8c-2.9,0.9-5.7,1.4-8.5,1.4c-4.4,0-8.8-1.2-12.8-3.6L427.4,324.3z M447.2,305.5
	l0-1.2L447.2,305.5L447.2,305.5z M446.6,305.1l-0.4-0.4L446.6,305.1L446.6,305.1z"/>
<path class="st1" d="M408,189.6c1.5-2.2,3.1-4.3,6.4-4c2.6,0.3,4.7,2.6,4.4,5.3c-0.2,1.4-0.7,2.6-1.9,4.5l-8.5,12.9
	c-1.5,2.2-3.1,4.3-6.4,3.9c-2.6-0.3-4.7-2.6-4.4-5.3c0.2-1.4,0.7-2.6,1.9-4.5L408,189.6L408,189.6z M378.2,187.3
	c-0.1-2.7-0.1-5.3,2.7-7c2.3-1.3,5.3-0.8,6.7,1.5c0.7,1.2,1,2.5,1.2,4.7l1,15.5c0.1,2.7,0.1,5.3-2.7,7c-2.2,1.4-5.3,0.9-6.7-1.5
	c-0.7-1.2-1-2.5-1.2-4.7L378.2,187.3L378.2,187.3z M353.4,195.6c-1.2-2.4-2.2-4.9-0.2-7.5c1.6-2.1,4.6-2.8,6.8-1.2
	c1.1,0.9,1.9,1.9,2.9,3.9l6.9,13.9c1.2,2.5,2.2,4.9,0.2,7.5c-1.6,2.1-4.5,2.9-6.8,1.2c-1.1-0.8-1.9-1.8-2.9-3.8L353.4,195.6
	L353.4,195.6z M352.7,215.5c2.3,1.4,4.4,2.9,4.2,6.2c-0.2,2.6-2.3,4.9-5.1,4.7c-1.4-0.1-2.6-0.5-4.5-1.7l-13.2-7.9
	c-2.3-1.4-4.4-3-4.2-6.2c0.2-2.6,2.3-4.9,5.1-4.7c1.4,0.1,2.6,0.5,4.5,1.7L352.7,215.5L352.7,215.5z M428.4,206.5
	c2.3-1.4,4.6-2.7,7.4-1c2.2,1.3,3.3,4.3,1.9,6.6c-0.7,1.2-1.7,2.1-3.5,3.3l-13,8.4c-2.3,1.4-4.6,2.7-7.4,1c-2.3-1.3-3.3-4.3-1.9-6.6
	c0.7-1.2,1.7-2.1,3.5-3.3l13-8.4L428.4,206.5z"/>
</svg>
